# xmcd
#
# Track frame offsets: 
#        150
#        20441
#        35385
#        45878
#        60822
#        75211
#        90454
#        100714
#        116539
#        126439
#        139087
#        152315
#
# Disc length: 2311 seconds
#
# Revision: 0
# Processed by: cddbd v1.5.2PL0 Copyright (c) Steve Scherf et al.
# Submitted via: ExactAudioCopy v1.3
#
DISCID=7909050c
DTITLE=Pistol Pete Wearn - Timber Framed
DYEAR=2017
DGENRE=Blues
TTITLE0=Aberdeen Mississippi Blues
TTITLE1=Sweet Home Chicago
TTITLE2=K.C. Railroad Bluesl
TTITLE3=Pallet On Your Floor
TTITLE4=Gonna Look Just Like A Monkey
TTITLE5=Fare Thee Well
TTITLE6=Crawdad Hole
TTITLE7=Wild About You Baby
TTITLE8=Nobody's Dirty Business
TTITLE9=Going Down South
TTITLE10=I'll Be Glad When You're Dead
TTITLE11=Sitting On Top Of The World
EXTD=
EXTT0=
EXTT1=
EXTT2=
EXTT3=
EXTT4=
EXTT5=
EXTT6=
EXTT7=
EXTT8=
EXTT9=
EXTT10=
EXTT11=
PLAYORDER=
